<svg xmlns="http://www.w3.org/2000/svg" width="256" height="256" viewBox="0 0 100 100"><rect width="100" height="100" rx="50" fill="#86ba90"></rect><path fill="#fff" d="M71.32 23.85L71.32 23.85Q74.04 25.29 74.76 28.09L74.76 28.09Q73.16 37.05 71.88 45.89Q70.60 54.73 69.40 60.69Q68.20 66.65 67.76 69.61Q67.32 72.57 66.76 75.53L66.76 75.53L66.28 77.21Q66.12 78.09 65.96 78.85Q65.80 79.61 65.64 80.49L65.64 80.49Q63.40 83.05 59.56 83.05L59.56 83.05Q55.48 83.05 53.08 80.97L53.08 80.97Q51.64 79.85 52.60 76.25L52.60 76.25Q53 74.81 53.12 72.53Q53.24 70.25 53.40 68.73L53.40 68.73L53.40 68.57Q51 69.45 49.08 70.85Q47.16 72.25 46.68 72.61Q46.20 72.97 45.40 73.17Q44.60 73.37 43.96 73.45L43.96 73.45Q42.44 73.53 41.88 73.93L41.88 73.93Q37.24 82.25 33.56 83.21L33.56 83.21Q31.24 83.93 28.92 83.57Q26.60 83.21 25.24 80.81L25.24 80.81Q22.68 78.41 26.52 67.69L26.52 67.69Q28.60 62.01 32.48 54.05Q36.36 46.09 39.96 40.17L39.96 40.17Q47.72 27.45 57 18.73L57 18.73Q58.52 18.09 60.28 17.25Q62.04 16.41 63.76 16.33Q65.48 16.25 67.32 16.73Q69.16 17.21 70.44 18.17L70.44 18.17Q73.40 20.41 71.32 23.85ZM57.24 40.33L54.20 44.89Q52.52 49.69 50.84 53.73Q49.16 57.77 47.96 60.81L47.96 60.81L54.28 60.57Q54.92 55.45 55.72 50.41Q56.52 45.37 57.24 40.33L57.24 40.33ZM52.04 60.89L52.04 60.89Q53.16 60.89 54.28 60.73L54.28 60.73L54.28 60.65Q53.24 60.73 52.36 60.81Q51.48 60.89 52.04 60.89Z"></path></svg>